{"title":"Creature (2014) (Hindi Movie) DVDRip 1CD 700MB [SumoMan]","uid":11214396,"size":747219999,"categoryP":"video","categoryS":"movies_dvdr","magnet":"?xt=urn:btih:981794b2bdf0b40ac960c4515b61ac579eba938f&amp;dn=Creature+%282014%29+%28Hindi+Movie%29+DVDRip+1CD+700MB+%5BSumoMan%5D&amp;tr=udp%3A%2F%2Ftracker.openbittorrent.com%3A80&amp;tr=udp%3A%2F%2Fopen.demonii.com%3A1337&amp;tr=udp%3A%2F%2Ftracker.coppersurfer.tk%3A6969&amp;tr=udp%3A%2F%2Fexodus.desync.com%3A6969","seeders":1,"leechers":0,"uploader":"inovai","files":3,"time":1413310454,"description":"Creature (2014) (Hindi Movie) DVDRip 1CD 700MB [SumoMan]\n\nCover:\n  &lt;a href=&quot;\nhttp://forum.primetimeshow.in/viewtopic.php?f=7&amp;t=671&quot; rel=&quot;nofollow&quot; target=&quot;_NEW&quot;&gt;\nhttp://forum.primetimeshow.in/viewtopic.php?f=7&amp;t=671&lt;/a&gt;\n\nGENRE: Horror | Sci-Fi\n\nScreenshots:\n  &lt;a href=&quot;\nhttp://m.primetimeshow.in/share-0CBC_543D4AF3.html&quot; rel=&quot;nofollow&quot; target=&quot;_NEW&quot;&gt;\nhttp://m.primetimeshow.in/share-0CBC_543D4AF3.html&lt;/a&gt;\n &lt;a href=&quot;\nhttp://m.primetimeshow.in/share-1E11_543D4AF3.html&quot; rel=&quot;nofollow&quot; target=&quot;_NEW&quot;&gt;\nhttp://m.primetimeshow.in/share-1E11_543D4AF3.html&lt;/a&gt;\n &lt;a href=&quot;\nhttp://m.primetimeshow.in/share-D2C7_543D4AF3.html&quot; rel=&quot;nofollow&quot; target=&quot;_NEW&quot;&gt;\nhttp://m.primetimeshow.in/share-D2C7_543D4AF3.html&lt;/a&gt;\n &lt;a href=&quot;\nhttp://m.primetimeshow.in/share-29B3_543D4AF3.html&quot; rel=&quot;nofollow&quot; target=&quot;_NEW&quot;&gt;\nhttp://m.primetimeshow.in/share-29B3_543D4AF3.html&lt;/a&gt;\n &lt;a href=&quot;\nhttp://m.primetimeshow.in/share-8D89_543D4AF3.html&quot; rel=&quot;nofollow&quot; target=&quot;_NEW&quot;&gt;\nhttp://m.primetimeshow.in/share-8D89_543D4AF3.html&lt;/a&gt;\n\n\nGeneral Info:\n\nFormat : Matroska\nFormat version : Version 2\nFile size : 697 MiB\nDuration : 2h 17mn\nOverall bit rate : 708 Kbps\n\n\nVideo\nID : 1\nFormat : AVC\nFormat/Info : Advanced Video Codec\nFormat profile : &lt;a class=&quot;__cf_email__&quot; href=&quot;/cdn-cgi/l/email-protection&quot; data-cfemail=&quot;470f2e202f070b746977&quot;&gt;[email&amp;#160;protected]&lt;/a&gt;&lt;script cf-hash='f9e31' type=&quot;text/javascript&quot;&gt;\n/* &lt;![CDATA[ */!function(){try{var t=&quot;currentScript&quot;in document?document.currentScript:function(){for(var t=document.getElementsByTagName(&quot;script&quot;),e=t.length;e--;)if(t[e].getAttribute(&quot;cf-hash&quot;))return t[e]}();if(t&amp;&amp;t.previousSibling){var e,r,n,i,c=t.previousSibling,a=c.getAttribute(&quot;data-cfemail&quot;);if(a){for(e=&quot;&quot;,r=parseInt(a.substr(0,2),16),n=2;a.length-n;n+=2)i=parseInt(a.substr(n,2),16)^r,e+=String.fromCharCode(i);e=document.createTextNode(e),c.parentNode.replaceChild(e,c)}}}catch(u){}}();/* ]]&gt; */&lt;/script&gt;\nFormat settings, CABAC : Yes\nFormat settings, ReFrames : 4 frames\nCodec ID : V_MPEG4/ISO/AVC\nDuration : 2h 17mn\nBit rate : 578 Kbps\nWidth : 640 pixels\nHeight : 272 pixels\nDisplay aspect ratio : 2.35:1\nFrame rate mode : Constant\nFrame rate : 29.970 fps\nColor space : YUV\nChroma subsampling : 4:2:0\nBit depth : 8 bits\nScan type : Progressive\nBits/(Pixel*Frame) : 0.111\nStream size : 557 MiB (80%)\nWriting library : x264\n\nAudio\nID : 2\nFormat : AC-3\nFormat/Info : Audio Coding 3\nMode extension : CM (complete main)\nFormat settings, Endianness : Big\nCodec ID : A_AC3\nDuration : 2h 17mn\nBit rate mode : Constant\nBit rate : 128 Kbps\nChannel(s) : 2 channels\nChannel positions : Front: L R\nSampling rate : 48.0 KHz\nBit depth : 16 bits\nCompression mode : Lossy\nStream size : 126 MiB (18%)\nDefault : Yes\nForced : No\n\nSource : Team TnT\n\nThanks to SumoMan!!\n\nSeed n Enjoy!!","torrent":{"xt":"urn:btih:981794b2bdf0b40ac960c4515b61ac579eba938f","amp;dn":"Creature+%282014%29+%28Hindi+Movie%29+DVDRip+1CD+700MB+%5BSumoMan%5D","amp;tr":["udp%3A%2F%2Ftracker.openbittorrent.com%3A80","udp%3A%2F%2Fopen.demonii.com%3A1337","udp%3A%2F%2Ftracker.coppersurfer.tk%3A6969","udp%3A%2F%2Fexodus.desync.com%3A6969"],"infoHash":"981794b2bdf0b40ac960c4515b61ac579eba938f","infoHashBuffer":{"type":"Buffer","data":[152,23,148,178,189,240,180,10,201,96,196,81,91,97,172,87,158,186,147,143]},"announce":[],"urlList":[]}}